<svg width="19" height="18" viewBox="0 0 19 18" fill="none" xmlns="http://www.w3.org/2000/svg">
<g filter="url(#filter0_d_19_273)">
<g filter="url(#filter1_d_19_273)">
<path d="M3 4C3 3.05719 3 2.58579 3.29289 2.29289C3.58579 2 4.05719 2 5 2H11C11.9428 2 12.4142 2 12.7071 2.29289C13 2.58579 13 3.05719 13 4V7V10C13 10.9428 13 11.4142 12.7071 11.7071C12.4142 12 11.9428 12 11 12H5C4.05719 12 3.58579 12 3.29289 11.7071C3 11.4142 3 10.9428 3 10V4Z" fill="url(#paint0_linear_19_273)"/>
<g filter="url(#filter2_ii_19_273)">
<path d="M3.5 4C3.5 3.05719 3.5 2.58579 3.79289 2.29289C4.08579 2 4.55719 2 5.5 2H11.5C12.4428 2 12.9142 2 13.2071 2.29289C13.5 2.58579 13.5 3.05719 13.5 4V7V10C13.5 10.9428 13.5 11.4142 13.2071 11.7071C12.9142 12 12.4428 12 11.5 12H5.5C4.55719 12 4.08579 12 3.79289 11.7071C3.5 11.4142 3.5 10.9428 3.5 10V4Z" fill="white" fill-opacity="0.01"/>
</g>
<path d="M11.5 1.5H5.5C5.48899 1.5 5.47802 1.5 5.46708 1.5C5.02384 1.49997 4.64193 1.49995 4.3361 1.54107C4.00835 1.58514 3.69417 1.68451 3.43934 1.93934C3.18451 2.19417 3.08514 2.50835 3.04107 2.8361C2.99995 3.14193 2.99997 3.52384 3 3.96708C3 3.97802 3 3.98899 3 4V10L3 10.0329C2.99997 10.4762 2.99995 10.8581 3.04107 11.1639C3.08514 11.4917 3.18451 11.8058 3.43934 12.0607C3.69417 12.3155 4.00835 12.4149 4.3361 12.4589C4.64194 12.5 5.02385 12.5 5.4671 12.5L5.5 12.5H11.5L11.5329 12.5C11.9762 12.5 12.3581 12.5 12.6639 12.4589C12.9917 12.4149 13.3058 12.3155 13.5607 12.0607C13.8155 11.8058 13.9149 11.4917 13.9589 11.1639C14 10.8581 14 10.4762 14 10.0329L14 10V7V4L14 3.9671C14 3.52385 14 3.14194 13.9589 2.8361C13.9149 2.50835 13.8155 2.19417 13.5607 1.93934C13.3058 1.68451 12.9917 1.58514 12.6639 1.54107C12.3581 1.49995 11.9762 1.49997 11.5329 1.5L11.5 1.5Z" stroke="#5A3914"/>
</g>
</g>
<defs>
<filter id="filter0_d_19_273" x="0.5" y="0" width="18" height="18" filterUnits="userSpaceOnUse" color-interpolation-filters="sRGB">
<feFlood flood-opacity="0" result="BackgroundImageFix"/>
<feColorMatrix in="SourceAlpha" type="matrix" values="0 0 0 0 0 0 0 0 0 0 0 0 0 0 0 0 0 0 127 0" result="hardAlpha"/>
<feOffset dx="1" dy="2"/>
<feGaussianBlur stdDeviation="1.5"/>
<feComposite in2="hardAlpha" operator="out"/>
<feColorMatrix type="matrix" values="0 0 0 0 0 0 0 0 0 0 0 0 0 0 0 0 0 0 0.4 0"/>
<feBlend mode="normal" in2="BackgroundImageFix" result="effect1_dropShadow_19_273"/>
<feBlend mode="normal" in="SourceGraphic" in2="effect1_dropShadow_19_273" result="shape"/>
</filter>
<filter id="filter1_d_19_273" x="0.5" y="0" width="18" height="18" filterUnits="userSpaceOnUse" color-interpolation-filters="sRGB">
<feFlood flood-opacity="0" result="BackgroundImageFix"/>
<feColorMatrix in="SourceAlpha" type="matrix" values="0 0 0 0 0 0 0 0 0 0 0 0 0 0 0 0 0 0 127 0" result="hardAlpha"/>
<feOffset dx="1" dy="2"/>
<feGaussianBlur stdDeviation="1.5"/>
<feComposite in2="hardAlpha" operator="out"/>
<feColorMatrix type="matrix" values="0 0 0 0 0 0 0 0 0 0 0 0 0 0 0 0 0 0 0.4 0"/>
<feBlend mode="normal" in2="BackgroundImageFix" result="effect1_dropShadow_19_273"/>
<feBlend mode="normal" in="SourceGraphic" in2="effect1_dropShadow_19_273" result="shape"/>
</filter>
<filter id="filter2_ii_19_273" x="2.5" y="1" width="12" height="12" filterUnits="userSpaceOnUse" color-interpolation-filters="sRGB">
<feFlood flood-opacity="0" result="BackgroundImageFix"/>
<feBlend mode="normal" in="SourceGraphic" in2="BackgroundImageFix" result="shape"/>
<feColorMatrix in="SourceAlpha" type="matrix" values="0 0 0 0 0 0 0 0 0 0 0 0 0 0 0 0 0 0 127 0" result="hardAlpha"/>
<feOffset dx="-2" dy="-2"/>
<feComposite in2="hardAlpha" operator="arithmetic" k2="-1" k3="1"/>
<feColorMatrix type="matrix" values="0 0 0 0 0.380392 0 0 0 0 0.827451 0 0 0 0 0.956863 0 0 0 0.8 0"/>
<feBlend mode="normal" in2="shape" result="effect1_innerShadow_19_273"/>
<feColorMatrix in="SourceAlpha" type="matrix" values="0 0 0 0 0 0 0 0 0 0 0 0 0 0 0 0 0 0 127 0" result="hardAlpha"/>
<feOffset dx="2" dy="2"/>
<feComposite in2="hardAlpha" operator="arithmetic" k2="-1" k3="1"/>
<feColorMatrix type="matrix" values="0 0 0 0 1 0 0 0 0 1 0 0 0 0 1 0 0 0 0.55 0"/>
<feBlend mode="normal" in2="effect1_innerShadow_19_273" result="effect2_innerShadow_19_273"/>
</filter>
<linearGradient id="paint0_linear_19_273" x1="8" y1="2" x2="8" y2="12" gradientUnits="userSpaceOnUse">
<stop stop-color="#966E00"/>
<stop offset="0.45" stop-color="#FF9500"/>
<stop offset="0.505108" stop-color="#FFA237"/>
<stop offset="0.720142" stop-color="white"/>
<stop offset="1" stop-color="white"/>
</linearGradient>
</defs>
</svg>
